<svg xmlns="http://www.w3.org/2000/svg" xmlns:xlink="http://www.w3.org/1999/xlink" width="527pt" height="697pt" viewBox="0 0 526.64 697"><g id="graph0" class="graph" transform="scale(1 1) rotate(0) translate(4 693)"><title>G</title><polygon fill="#fff" stroke="transparent" points="-4 4 -4 -693 522.644 -693 522.644 4 -4 4"/><g id="clust1" class="cluster"><title>cluster_Global</title><path fill="none" stroke="silver" d="M20,-8C20,-8 498.644,-8 498.644,-8 504.644,-8 510.644,-14 510.644,-20 510.644,-20 510.644,-669 510.644,-669 510.644,-675 504.644,-681 498.644,-681 498.644,-681 20,-681 20,-681 14,-681 8,-675 8,-669 8,-669 8,-20 8,-20 8,-14 14,-8 20,-8"/><text x="259.322" y="-668.2" fill="silver" font-family="Times,serif" font-size="11" text-anchor="middle">Global</text></g><g id="clust2" class="cluster"><title>cluster_\PHPLogin</title><path fill="none" stroke="silver" d="M28,-16C28,-16 490.644,-16 490.644,-16 496.644,-16 502.644,-22 502.644,-28 502.644,-28 502.644,-642 502.644,-642 502.644,-648 496.644,-654 490.644,-654 490.644,-654 28,-654 28,-654 22,-654 16,-648 16,-642 16,-642 16,-28 16,-28 16,-22 22,-16 28,-16"/><text x="259.322" y="-641.2" fill="silver" font-family="Times,serif" font-size="11" text-anchor="middle">PHPLogin</text></g><g id="clust3" class="cluster"><title>cluster_\PHPLogin\Traits</title><path fill="none" stroke="silver" d="M375.6279,-502C375.6279,-502 482.644,-502 482.644,-502 488.644,-502 494.644,-508 494.644,-514 494.644,-514 494.644,-615 494.644,-615 494.644,-621 488.644,-627 482.644,-627 482.644,-627 375.6279,-627 375.6279,-627 369.6279,-627 363.6279,-621 363.6279,-615 363.6279,-615 363.6279,-514 363.6279,-514 363.6279,-508 369.6279,-502 375.6279,-502"/><text x="429.136" y="-614.2" fill="silver" font-family="Times,serif" font-size="11" text-anchor="middle">Traits</text></g><g id="node1" class="node"><title>\\PHPLogin\\Traits\\RoleTrait</title><polygon fill="none" stroke="#000" points="467.047 -600 391.225 -600 391.225 -564 467.047 -564 467.047 -600"/><text x="429.136" y="-578.7" fill="#000" font-family="Courier,monospace" font-size="11" text-anchor="middle">RoleTrait</text></g><g id="node2" class="node"><title>\\PHPLogin\\Traits\\PermissionTrait</title><polygon fill="none" stroke="#000" points="486.652 -546 371.62 -546 371.62 -510 486.652 -510 486.652 -546"/><text x="429.136" y="-524.7" fill="#000" font-family="Courier,monospace" font-size="11" text-anchor="middle">PermissionTrait</text></g><g id="node3" class="node"><title>\\PHPLogin\\ProfileData</title><polygon fill="none" stroke="#000" points="269.73 -519 181.505 -519 181.505 -483 269.73 -483 269.73 -519"/><text x="225.617" y="-497.7" fill="#000" font-family="Courier,monospace" font-size="11" text-anchor="middle">ProfileData</text></g><g id="node10" class="node"><title>\\PHPLogin\\DbConn</title><polygon fill="none" stroke="#000" points="79.411 -330 24.195 -330 24.195 -294 79.411 -294 79.411 -330"/><text x="51.803" y="-308.7" fill="#000" font-family="Courier,monospace" font-size="11" text-anchor="middle">DbConn</text></g><g id="edge1" class="edge"><title>\\PHPLogin\\ProfileData-&gt;\\PHPLogin\\DbConn</title><path fill="none" stroke="#000" d="M181.1812,-490.2155C170.7532,-486.2769 160.1914,-481.0026 151.6064,-474 106.7985,-437.4512 76.6055,-375.1439 61.9902,-339.3911"/><polygon fill="none" stroke="#000" points="65.226 -338.056 58.282 -330.055 58.721 -340.64 65.226 -338.056"/></g><g id="node4" class="node"><title>\\PHPLogin\\PasswordHandler</title><polygon fill="none" stroke="#000" points="283.133 -465 168.101 -465 168.101 -429 283.133 -429 283.133 -465"/><text x="225.617" y="-443.7" fill="#000" font-family="Courier,monospace" font-size="11" text-anchor="middle">PasswordHandler</text></g><g id="edge2" class="edge"><title>\\PHPLogin\\PasswordHandler-&gt;\\PHPLogin\\DbConn</title><path fill="none" stroke="#000" d="M168.1048,-429.1603C162.339,-426.4564 156.7299,-423.4106 151.6064,-420 118.3379,-397.8539 88.4373,-362.4082 70.2258,-338.2092"/><polygon fill="none" stroke="#000" points="73.039 -336.127 64.285 -330.159 67.407 -340.284 73.039 -336.127"/></g><g id="node5" class="node"><title>\\PHPLogin\\ImgHandler</title><polygon fill="none" stroke="#000" points="470.147 -492 388.125 -492 388.125 -456 470.147 -456 470.147 -492"/><text x="429.136" y="-470.7" fill="#000" font-family="Courier,monospace" font-size="11" text-anchor="middle">ImgHandler</text></g><g id="node6" class="node"><title>\\PHPLogin\\PermissionHandler</title><polygon fill="none" stroke="#000" points="289.836 -411 161.399 -411 161.399 -375 289.836 -375 289.836 -411"/><text x="225.617" y="-389.7" fill="#000" font-family="Courier,monospace" font-size="11" text-anchor="middle">PermissionHandler</text></g><g id="edge3" class="edge"><title>\\PHPLogin\\PermissionHandler-&gt;\\PHPLogin\\DbConn</title><path fill="none" stroke="#000" d="M173.0739,-374.9128C165.7948,-372.0941 158.4664,-369.0872 151.6064,-366 130.1465,-356.3423 106.9836,-343.9401 88.3794,-333.4574"/><polygon fill="none" stroke="#000" points="90.063 -330.388 79.64 -328.486 86.602 -336.473 90.063 -330.388"/></g><g id="node7" class="node"><title>\\PHPLogin\\UserHandler</title><polygon fill="none" stroke="#000" points="269.73 -357 181.505 -357 181.505 -321 269.73 -321 269.73 -357"/><text x="225.617" y="-335.7" fill="#000" font-family="Courier,monospace" font-size="11" text-anchor="middle">UserHandler</text></g><g id="edge4" class="edge"><title>\\PHPLogin\\UserHandler-&gt;\\PHPLogin\\DbConn</title><path fill="none" stroke="#000" d="M181.3069,-332.1169C152.9819,-327.7169 116.6367,-322.0711 89.6634,-317.8811"/><polygon fill="none" stroke="#000" points="89.877 -314.372 79.458 -316.296 88.802 -321.289 89.877 -314.372"/></g><g id="node8" class="node"><title>\\PHPLogin\\AppConfig</title><polygon fill="none" stroke="#000" points="263.528 -141 187.706 -141 187.706 -105 263.528 -105 263.528 -141"/><text x="225.617" y="-119.7" fill="#000" font-family="Courier,monospace" font-size="11" text-anchor="middle">AppConfig</text></g><g id="edge5" class="edge"><title>\\PHPLogin\\AppConfig-&gt;\\PHPLogin\\DbConn</title><path fill="none" stroke="#000" d="M187.7099,-131.4774C175.2735,-135.5854 161.9932,-141.5278 151.6064,-150 106.7985,-186.5488 76.6055,-248.8561 61.9902,-284.6089"/><polygon fill="none" stroke="#000" points="58.721 -283.36 58.282 -293.945 65.226 -285.944 58.721 -283.36"/></g><g id="node9" class="node"><title>\\PHPLogin\\CSRFHandler</title><polygon fill="none" stroke="#000" points="473.249 -438 385.023 -438 385.023 -402 473.249 -402 473.249 -438"/><text x="429.136" y="-416.7" fill="#000" font-family="Courier,monospace" font-size="11" text-anchor="middle">CSRFHandler</text></g><g id="node11" class="node"><title>\\PHPLogin\\MailHandler</title><polygon fill="none" stroke="#000" points="473.249 -384 385.023 -384 385.023 -348 473.249 -348 473.249 -384"/><text x="429.136" y="-362.7" fill="#000" font-family="Courier,monospace" font-size="11" text-anchor="middle">MailHandler</text></g><g id="edge6" class="edge"><title>\\PHPLogin\\MailHandler-&gt;\\PHPLogin\\AppConfig</title><path fill="none" stroke="#000" d="M384.97,-353.9004C377.0839,-350.1468 369.5173,-345.2817 363.6279,-339 302.9707,-274.3023 361.603,-213.4364 299.6279,-150 292.3877,-142.5891 282.9522,-137.1999 273.2544,-133.2849"/><polygon fill="none" stroke="#000" points="274.135 -129.884 263.541 -129.841 271.796 -136.482 274.135 -129.884"/></g><g id="node12" class="node"><title>\\PHPLogin\\TokenHandler</title><polygon fill="none" stroke="#000" points="476.849 -330 381.423 -330 381.423 -294 476.849 -294 476.849 -330"/><text x="429.136" y="-308.7" fill="#000" font-family="Courier,monospace" font-size="11" text-anchor="middle">TokenHandler</text></g><g id="node13" class="node"><title>\\PHPLogin\\MiscFunctions</title><polygon fill="none" stroke="#000" points="479.95 -276 378.322 -276 378.322 -240 479.95 -240 479.95 -276"/><text x="429.136" y="-254.7" fill="#000" font-family="Courier,monospace" font-size="11" text-anchor="middle">MiscFunctions</text></g><g id="node14" class="node"><title>\\PHPLogin\\UserData</title><polygon fill="none" stroke="#000" points="259.926 -303 191.308 -303 191.308 -267 259.926 -267 259.926 -303"/><text x="225.617" y="-281.7" fill="#000" font-family="Courier,monospace" font-size="11" text-anchor="middle">UserData</text></g><g id="edge7" class="edge"><title>\\PHPLogin\\UserData-&gt;\\PHPLogin\\DbConn</title><path fill="none" stroke="#000" d="M191.2771,-290.3343C161.9835,-294.8848 119.9264,-301.4178 89.6649,-306.1186"/><polygon fill="none" stroke="#000" points="88.837 -302.705 79.493 -307.699 89.912 -309.622 88.837 -302.705"/></g><g id="node15" class="node"><title>\\PHPLogin\\CookieHandler</title><polygon fill="none" stroke="#000" points="479.95 -222 378.322 -222 378.322 -186 479.95 -186 479.95 -222"/><text x="429.136" y="-200.7" fill="#000" font-family="Courier,monospace" font-size="11" text-anchor="middle">CookieHandler</text></g><g id="node16" class="node"><title>\\PHPLogin\\LoginHandler</title><polygon fill="none" stroke="#000" points="476.849 -168 381.423 -168 381.423 -132 476.849 -132 476.849 -168"/><text x="429.136" y="-146.7" fill="#000" font-family="Courier,monospace" font-size="11" text-anchor="middle">LoginHandler</text></g><g id="edge8" class="edge"><title>\\PHPLogin\\LoginHandler-&gt;\\PHPLogin\\AppConfig</title><path fill="none" stroke="#000" d="M381.4199,-143.6697C348.9793,-139.3659 306.2157,-133.6927 273.6981,-129.3787"/><polygon fill="none" stroke="#000" points="273.9 -125.875 263.527 -128.029 272.979 -132.814 273.9 -125.875"/></g><g id="node17" class="node"><title>\\PHPLogin\\RoleHandler</title><polygon fill="none" stroke="#000" points="269.73 -249 181.505 -249 181.505 -213 269.73 -213 269.73 -249"/><text x="225.617" y="-227.7" fill="#000" font-family="Courier,monospace" font-size="11" text-anchor="middle">RoleHandler</text></g><g id="edge9" class="edge"><title>\\PHPLogin\\RoleHandler-&gt;\\PHPLogin\\DbConn</title><path fill="none" stroke="#000" d="M181.3613,-245.9469C171.4594,-249.6214 161.0856,-253.7341 151.6064,-258 130.1465,-267.6577 106.9836,-280.0599 88.3794,-290.5426"/><polygon fill="none" stroke="#000" points="86.602 -287.527 79.64 -295.514 90.063 -293.612 86.602 -287.527"/></g><g id="node18" class="node"><title>\\PHPLogin\\AuthorizationHandler</title><polygon fill="none" stroke="#000" points="299.639 -195 151.596 -195 151.596 -159 299.639 -159 299.639 -195"/><text x="225.617" y="-173.7" fill="#000" font-family="Courier,monospace" font-size="11" text-anchor="middle">AuthorizationHandler</text></g><g id="edge10" class="edge"><title>\\PHPLogin\\AuthorizationHandler-&gt;\\PHPLogin\\DbConn</title><path fill="none" stroke="#000" d="M167.7206,-195.0205C162.09,-197.6792 156.6161,-200.6652 151.6064,-204 118.3379,-226.1461 88.4373,-261.5918 70.2258,-285.7908"/><polygon fill="none" stroke="#000" points="67.407 -283.716 64.285 -293.841 73.039 -287.873 67.407 -283.716"/></g><g id="node19" class="node"><title>\\PHPLogin\\PageConstructor</title><polygon fill="none" stroke="#000" points="486.652 -114 371.62 -114 371.62 -78 486.652 -78 486.652 -114"/><text x="429.136" y="-92.7" fill="#000" font-family="Courier,monospace" font-size="11" text-anchor="middle">PageConstructor</text></g><g id="edge11" class="edge"><title>\\PHPLogin\\PageConstructor-&gt;\\PHPLogin\\AppConfig</title><path fill="none" stroke="#000" d="M371.3601,-103.6649C340.4538,-107.7651 302.8447,-112.7545 273.5731,-116.6379"/><polygon fill="none" stroke="#000" points="273.045 -113.177 263.592 -117.962 273.965 -120.117 273.045 -113.177"/></g><g id="node20" class="node"><title>\\PHPLogin\\AdminFunctions</title><polygon fill="none" stroke="#000" points="483.552 -60 374.72 -60 374.72 -24 483.552 -24 483.552 -60"/><text x="429.136" y="-38.7" fill="#000" font-family="Courier,monospace" font-size="11" text-anchor="middle">AdminFunctions</text></g><g id="edge12" class="edge"><title>\\PHPLogin\\AdminFunctions-&gt;\\PHPLogin\\AppConfig</title><path fill="none" stroke="#000" d="M383.7157,-60.0772C350.7682,-73.1902 306.3144,-90.8827 272.936,-104.1672"/><polygon fill="none" stroke="#000" points="271.394 -101.014 263.397 -107.964 273.982 -107.518 271.394 -101.014"/></g></g></svg>